<svg xmlns="http://www.w3.org/2000/svg" viewBox="0 0 640 430" role="img" aria-label="Colorful building blocks">
  <defs><linearGradient id="bg" x2="1" y2="1"><stop stop-color="#dff5ff"/><stop offset="1" stop-color="#fdf1cb"/></linearGradient></defs>
  <rect width="640" height="430" rx="36" fill="url(#bg)"/>
  <circle cx="90" cy="82" r="44" fill="#fff" opacity=".7"/><circle cx="535" cy="112" r="58" fill="#fff" opacity=".52"/>
  <g transform="translate(92 126)">
    <rect x="0" y="112" width="148" height="92" rx="15" fill="#ffca3a"/><rect x="22" y="95" width="27" height="21" rx="7" fill="#eaa81b"/><rect x="96" y="95" width="27" height="21" rx="7" fill="#eaa81b"/>
    <rect x="118" y="44" width="152" height="96" rx="15" fill="#4db5e8"/><rect x="141" y="26" width="28" height="22" rx="7" fill="#298dcc"/><rect x="216" y="26" width="28" height="22" rx="7" fill="#298dcc"/>
    <rect x="246" y="112" width="146" height="92" rx="15" fill="#f2707a"/><rect x="268" y="95" width="27" height="21" rx="7" fill="#d84c5c"/><rect x="342" y="95" width="27" height="21" rx="7" fill="#d84c5c"/>
  </g>
  <text x="320" y="382" text-anchor="middle" font-family="Arial,sans-serif" font-size="22" font-weight="700" fill="#31506b">BUILD AND CREATE</text>
</svg>
