<svg xmlns="http://www.w3.org/2000/svg" viewBox="0 0 640 430" role="img" aria-label="Game controller">
  <defs><linearGradient id="bg" x2="1" y2="1"><stop stop-color="#ede4ff"/><stop offset="1" stop-color="#c6ecff"/></linearGradient></defs>
  <rect width="640" height="430" rx="36" fill="url(#bg)"/>
  <path d="M196 155c31-25 60-30 124-30s93 5 124 30c27 23 59 102 42 137-12 25-41 22-65 0l-51-46H270l-51 46c-24 22-53 25-65 0-17-35 15-114 42-137Z" fill="#303654"/>
  <rect x="216" y="191" width="66" height="18" rx="9" fill="#edf4ff"/><rect x="240" y="167" width="18" height="66" rx="9" fill="#edf4ff"/>
  <circle cx="400" cy="184" r="13" fill="#5ed49e"/><circle cx="433" cy="211" r="13" fill="#f86d77"/><circle cx="371" cy="212" r="13" fill="#54baf1"/><circle cx="405" cy="237" r="13" fill="#f9ca43"/>
  <text x="320" y="359" text-anchor="middle" font-family="Arial,sans-serif" font-size="22" font-weight="700" fill="#433f72">PLAY TIME</text>
</svg>
