<svg xmlns="http://www.w3.org/2000/svg" viewBox="0 0 640 430" role="img" aria-label="Pretend play castle">
  <defs><linearGradient id="bg" y2="1"><stop stop-color="#ffe8ef"/><stop offset="1" stop-color="#efe7ff"/></linearGradient></defs>
  <rect width="640" height="430" rx="36" fill="url(#bg)"/>
  <path d="M151 322V165h58v-51h61v51h100v-51h61v51h58v157Z" fill="#e275ab"/>
  <path d="M151 165h58l-29-45Zm119 0h100l-50-63Zm161 0h58l-29-45Z" fill="#b95593"/>
  <path d="M284 322v-72c0-48 72-48 72 0v72Z" fill="#fff0ce"/>
  <rect x="201" y="215" width="38" height="45" rx="13" fill="#c9ebff"/><rect x="402" y="215" width="38" height="45" rx="13" fill="#c9ebff"/>
  <g fill="#f7ca43"><circle cx="98" cy="96" r="8"/><circle cx="543" cy="130" r="9"/><circle cx="515" cy="80" r="5"/></g>
  <text x="320" y="383" text-anchor="middle" font-family="Arial,sans-serif" font-size="22" font-weight="700" fill="#833e76">IMAGINATION LAND</text>
</svg>
